<svg width="61" height="58" viewBox="0 0 61 58" fill="none" xmlns="http://www.w3.org/2000/svg">
<path d="M1.288 1.056L0.580893 0.34889L0.580892 0.34889L1.288 1.056ZM8.776 1.056L9.48311 0.348891L9.48311 0.34889L8.776 1.056ZM9.864 7.008L10.6862 6.43879L10.6719 6.41817L10.6566 6.39829L9.864 7.008ZM11.528 8.16L11.8263 7.20552L11.8182 7.20301L11.8102 7.20063L11.528 8.16ZM45.832 8.928L46.5846 8.26949L46.5627 8.24444L46.5391 8.22089L45.832 8.928ZM45.832 19.168L45.1249 18.4609L45.1249 18.4609L45.832 19.168ZM6.664 17.952L7.17273 17.0911L7.16127 17.0843L7.14964 17.0778L6.664 17.952ZM2.312 13.28L1.41018 13.7121L1.41018 13.7121L2.312 13.28ZM51.528 8.864L50.8209 8.15689L50.7974 8.18044L50.7754 8.20549L51.528 8.864ZM59.528 8.864L60.2351 8.15689L60.2351 8.15689L59.528 8.864ZM59.528 19.168L58.8695 18.4154L58.8193 18.4593L58.7754 18.5095L59.528 19.168ZM51.528 19.168L52.2806 18.5095L52.2587 18.4844L52.2351 18.4609L51.528 19.168ZM1.84 2.208C1.84 1.97158 1.90564 1.85257 1.99511 1.7631L0.580892 0.34889C0.0730224 0.85676 -0.160001 1.50575 -0.160001 2.208L1.84 2.208ZM1.99511 1.7631C2.08457 1.67364 2.20358 1.608 2.44 1.608L2.44 -0.392003C1.73775 -0.392003 1.08876 -0.15898 0.580893 0.34889L1.99511 1.7631ZM2.44 1.608L7.624 1.608L7.624 -0.392003L2.44 -0.392003L2.44 1.608ZM7.624 1.608C7.86042 1.608 7.97943 1.67364 8.06889 1.7631L9.48311 0.34889C8.97524 -0.15898 8.32625 -0.392003 7.624 -0.392003L7.624 1.608ZM8.06889 1.7631C8.15836 1.85257 8.224 1.97158 8.224 2.208L10.224 2.208C10.224 1.50575 9.99098 0.856761 9.48311 0.348891L8.06889 1.7631ZM8.224 2.208L8.224 4.576L10.224 4.576L10.224 2.208L8.224 2.208ZM8.224 4.576C8.224 5.75368 8.45601 6.81773 9.07138 7.61771L10.6566 6.39829C10.4187 6.08893 10.224 5.53165 10.224 4.576L8.224 4.576ZM9.04181 7.57721C9.57165 8.34254 10.3292 8.84978 11.2458 9.11936L11.8102 7.20063C11.2761 7.04355 10.9243 6.78279 10.6862 6.43879L9.04181 7.57721ZM11.2297 9.11448C12.0297 9.36448 12.9232 9.48 13.896 9.48L13.896 7.48C13.0768 7.48 12.3916 7.38218 11.8263 7.20552L11.2297 9.11448ZM13.896 9.48L44.68 9.48L44.68 7.48L13.896 7.48L13.896 9.48ZM44.68 9.48C44.9164 9.48 45.0354 9.54564 45.1249 9.6351L46.5391 8.22089C46.0312 7.71302 45.3823 7.48 44.68 7.48L44.68 9.48ZM45.0794 9.58651C45.2295 9.75804 45.28 9.91165 45.28 10.08L47.28 10.08C47.28 9.39501 47.0318 8.78063 46.5846 8.26949L45.0794 9.58651ZM45.28 10.08L45.28 18.016L47.28 18.016L47.28 10.08L45.28 10.08ZM45.28 18.016C45.28 18.2524 45.2144 18.3714 45.1249 18.4609L46.5391 19.8751C47.047 19.3672 47.28 18.7183 47.28 18.016L45.28 18.016ZM45.1249 18.4609C45.0354 18.5504 44.9164 18.616 44.68 18.616L44.68 20.616C45.3823 20.616 46.0312 20.383 46.5391 19.8751L45.1249 18.4609ZM44.68 18.616L13.64 18.616L13.64 20.616L44.68 20.616L44.68 18.616ZM13.64 18.616C10.9977 18.616 8.85941 18.0877 7.17273 17.0911L6.15527 18.8129C8.22326 20.0349 10.7356 20.616 13.64 20.616L13.64 18.616ZM7.14964 17.0778C5.41727 16.1154 4.10883 14.7157 3.21381 12.8479L1.41018 13.7121C2.47784 15.9403 4.07072 17.6552 6.17836 18.8262L7.14964 17.0778ZM3.21381 12.8479C2.31331 10.9686 1.84 8.62909 1.84 5.792L-0.160001 5.792C-0.160001 8.8429 0.348016 11.4954 1.41018 13.7121L3.21381 12.8479ZM1.84 5.792L1.84 2.208L-0.160001 2.208L-0.160001 5.792L1.84 5.792ZM52.08 10.016C52.08 9.84765 52.1305 9.69404 52.2806 9.52251L50.7754 8.20549C50.3282 8.71663 50.08 9.33101 50.08 10.016L52.08 10.016ZM52.2351 9.5711C52.3246 9.48164 52.4436 9.416 52.68 9.416L52.68 7.416C51.9777 7.416 51.3288 7.64902 50.8209 8.15689L52.2351 9.5711ZM52.68 9.416L58.376 9.416L58.376 7.416L52.68 7.416L52.68 9.416ZM58.376 9.416C58.6124 9.416 58.7314 9.48164 58.8209 9.57111L60.2351 8.15689C59.7272 7.64902 59.0783 7.416 58.376 7.416L58.376 9.416ZM58.8209 9.5711C59.0015 9.75175 59.04 9.89025 59.04 10.016L61.04 10.016C61.04 9.28842 60.7371 8.65892 60.2351 8.15689L58.8209 9.5711ZM59.04 10.016L59.04 18.08L61.04 18.08L61.04 10.016L59.04 10.016ZM59.04 18.08C59.04 18.1983 59.0093 18.2931 58.8695 18.4154L60.1865 19.9206C60.7294 19.4456 61.04 18.815 61.04 18.08L59.04 18.08ZM58.7754 18.5095C58.6741 18.6253 58.5684 18.68 58.376 18.68L58.376 20.68C59.1222 20.68 59.7846 20.3933 60.2806 19.8265L58.7754 18.5095ZM58.376 18.68L52.68 18.68L52.68 20.68L58.376 20.68L58.376 18.68ZM52.68 18.68C52.4876 18.68 52.3819 18.6253 52.2806 18.5095L50.7754 19.8265C51.2714 20.3933 51.9338 20.68 52.68 20.68L52.68 18.68ZM52.2351 18.4609C52.1261 18.3519 52.08 18.2445 52.08 18.08L50.08 18.08C50.08 18.7689 50.3326 19.3868 50.8209 19.8751L52.2351 18.4609ZM52.08 18.08L52.08 10.016L50.08 10.016L50.08 18.08L52.08 18.08ZM13.256 34.9305L12.3073 34.6143L12.3032 34.6268L12.2993 34.6393L13.256 34.9305ZM15.56 30.1945L14.76 29.5945L14.755 29.6012L14.7501 29.608L15.56 30.1945ZM18.312 27.5065L17.7921 26.6523L17.7835 26.6575L17.7751 26.6628L18.312 27.5065ZM20.808 26.5465L20.8704 27.5446L20.8845 27.5437L20.8985 27.5424L20.808 26.5465ZM21.96 26.9945L21.2074 27.653L21.2293 27.6781L21.2529 27.7016L21.96 26.9945ZM22.408 35.6985L21.5136 35.2513L21.5136 35.2513L22.408 35.6985ZM22.152 36.0825L21.352 35.4825L21.307 35.5424L21.2715 35.6084L22.152 36.0825ZM21 37.7465L20.2366 37.1006L20.2216 37.1183L20.2074 37.1368L21 37.7465ZM19.848 39.6665L20.7528 40.0923L20.7528 40.0923L19.848 39.6665ZM20.04 45.2985L20.9054 44.7975L20.9054 44.7975L20.04 45.2985ZM23.816 45.9385L23.1828 45.1645L23.1645 45.1795L23.147 45.1952L23.816 45.9385ZM25.16 43.5705L24.2222 43.2232L24.2183 43.2342L25.16 43.5705ZM26.44 38.3225L25.4656 38.0976L25.4603 38.1205L25.4561 38.1436L26.44 38.3225ZM28.424 32.4985L27.5342 32.0422L27.5295 32.0513L27.525 32.0605L28.424 32.4985ZM31.688 28.6585L31.1393 27.8225L31.1332 27.8265L31.1272 27.8306L31.688 28.6585ZM41.544 28.9785L40.9691 29.7967L40.9691 29.7967L41.544 28.9785ZM45.384 33.8425L44.4755 34.2604L44.4789 34.2678L44.4825 34.2752L45.384 33.8425ZM46.024 48.1145L45.0753 47.7983L45.0709 47.8116L45.0668 47.8251L46.024 48.1145ZM43.848 52.7225L43.0381 52.136L43.0334 52.1425L43.0288 52.149L43.848 52.7225ZM41.096 55.6025L40.5327 54.7763L40.5327 54.7763L41.096 55.6025ZM38.536 56.6265L38.4805 55.628L38.4585 55.6293L38.4365 55.6315L38.536 56.6265ZM37.384 56.2425L36.6769 56.9496L36.7004 56.9732L36.7255 56.9951L37.384 56.2425ZM37 48.0505L36.1056 47.6033L36.0565 47.7015L36.0299 47.808L37 48.0505ZM37.256 47.6025L38.088 48.1572L38.1226 48.1054L38.1504 48.0497L37.256 47.6025ZM38.28 46.0665L37.5118 45.4263L37.5118 45.4263L38.28 46.0665ZM39.432 44.2745L38.5376 43.8273L38.5376 43.8273L39.432 44.2745ZM39.176 39.0265L38.3951 39.6512L38.3951 39.6512L39.176 39.0265ZM35.656 38.5785L35.0678 37.7698L35.0448 37.7865L35.0228 37.8045L35.656 38.5785ZM34.376 40.8185L33.431 40.4914L33.4273 40.5023L34.376 40.8185ZM33.096 46.1305L32.1148 45.9378L32.1113 45.9554L32.1085 45.9731L33.096 46.1305ZM30.792 53.1705L29.9382 52.6499L29.9335 52.6576L29.929 52.6653L30.792 53.1705ZM27.144 56.8825L26.686 55.9935L26.6748 55.9994L27.144 56.8825ZM17.352 56.1145L17.9689 55.3274L17.9622 55.3222L17.9554 55.3171L17.352 56.1145ZM13.64 50.7385L12.6983 51.0748L12.7009 51.0822L12.7037 51.0896L13.64 50.7385ZM13.36 42.0345C13.36 39.3276 13.6521 37.0634 14.2127 35.2217L12.2993 34.6393C11.6652 36.7229 11.36 39.1947 11.36 42.0345L13.36 42.0345ZM14.2047 35.2467C14.8223 33.394 15.5495 31.914 16.3699 30.781L14.7501 29.608C13.7785 30.9496 12.9697 32.627 12.3073 34.6143L14.2047 35.2467ZM16.36 30.7945C17.2069 29.6653 18.0401 28.8648 18.8489 28.3502L17.7751 26.6628C16.7066 27.3428 15.7051 28.3344 14.76 29.5945L16.36 30.7945ZM18.8319 28.3607C19.7573 27.7974 20.4245 27.5724 20.8704 27.5446L20.7456 25.5484C19.8262 25.6059 18.8293 26.0209 17.7921 26.6523L18.8319 28.3607ZM20.8985 27.5424C21.0637 27.5274 21.1291 27.5635 21.2074 27.653L22.7126 26.336C22.1936 25.7428 21.491 25.4803 20.7175 25.5506L20.8985 27.5424ZM21.2529 27.7016C21.4575 27.9062 21.472 28.0279 21.472 28.0825L23.472 28.0825C23.472 27.3691 23.1451 26.7654 22.6671 26.2874L21.2529 27.7016ZM21.472 28.0825L21.472 35.3785L23.472 35.3785L23.472 28.0825L21.472 28.0825ZM21.472 35.3785C21.472 35.4018 21.4673 35.3439 21.5136 35.2513L23.3024 36.1457C23.4341 35.8824 23.472 35.6111 23.472 35.3785L21.472 35.3785ZM21.5136 35.2513C21.5185 35.2415 21.5117 35.2562 21.4799 35.3038C21.4506 35.3478 21.4088 35.4068 21.352 35.4825L22.952 36.6825C23.0831 36.5077 23.2163 36.318 23.3024 36.1457L21.5136 35.2513ZM21.2715 35.6084C21.0104 36.0934 20.6677 36.5911 20.2366 37.1006L21.7634 38.3924C22.2709 37.7926 22.6963 37.1809 23.0325 36.5566L21.2715 35.6084ZM20.2074 37.1368C19.731 37.7561 19.3108 38.4594 18.9432 39.2407L20.7528 40.0923C21.0678 39.4229 21.4157 38.8462 21.7926 38.3562L20.2074 37.1368ZM18.9432 39.2407C18.5243 40.1308 18.336 41.1587 18.336 42.2905L20.336 42.2905C20.336 41.3743 20.489 40.6528 20.7528 40.0923L18.9432 39.2407ZM18.336 42.2905C18.336 43.6135 18.596 44.8001 19.1746 45.7995L20.9054 44.7975C20.5454 44.1755 20.336 43.3568 20.336 42.2905L18.336 42.2905ZM19.1746 45.7995C19.8232 46.9198 20.8574 47.5145 22.152 47.5145L22.152 45.5145C21.5693 45.5145 21.1955 45.2985 20.9054 44.7975L19.1746 45.7995ZM22.152 47.5145C23.0323 47.5145 23.841 47.2614 24.485 46.6818L23.147 45.1952C22.9377 45.3836 22.637 45.5145 22.152 45.5145L22.152 47.5145ZM24.4492 46.7125C25.1454 46.1428 25.6674 45.123 26.1017 43.9068L24.2183 43.2342C23.7993 44.4073 23.4252 44.9662 23.1828 45.1645L24.4492 46.7125ZM26.0977 43.9178C26.5556 42.6816 26.9946 40.8626 27.4239 38.5014L25.4561 38.1436C25.0321 40.4757 24.6177 42.1554 24.2223 43.2232L26.0977 43.9178ZM27.4144 38.5474C27.9131 36.3862 28.552 34.5191 29.323 32.9365L27.525 32.0605C26.6747 33.8059 25.9909 35.8215 25.4656 38.0976L27.4144 38.5474ZM29.3138 32.9548C30.1036 31.4147 31.0874 30.2732 32.2488 29.4864L31.1272 27.8306C29.6433 28.8358 28.4511 30.2543 27.5342 32.0422L29.3138 32.9548ZM32.2367 29.4945C33.4121 28.7232 34.856 28.3145 36.616 28.3145L36.616 26.3145C34.536 26.3145 32.6946 26.8018 31.1393 27.8225L32.2367 29.4945ZM36.616 28.3145C38.0906 28.3145 39.5359 28.7896 40.9691 29.7967L42.1189 28.1603C40.3947 26.9487 38.5547 26.3145 36.616 26.3145L36.616 28.3145ZM40.9691 29.7967C42.3747 30.7845 43.552 32.2529 44.4755 34.2604L46.2925 33.4246C45.2533 31.1655 43.8706 29.3912 42.1189 28.1603L40.9691 29.7967ZM44.4825 34.2752C45.4245 36.2378 45.92 38.7043 45.92 41.7145L47.92 41.7145C47.92 38.4954 47.3915 35.7138 46.2855 33.4098L44.4825 34.2752ZM45.92 41.7145C45.92 44.1131 45.63 46.1343 45.0753 47.7983L46.9727 48.4307C47.6127 46.5107 47.92 44.2653 47.92 41.7145L45.92 41.7145ZM45.0668 47.8251C44.5365 49.5792 43.8546 51.0084 43.0381 52.136L44.6579 53.309C45.6334 51.9619 46.4022 50.3191 46.9812 48.4039L45.0668 47.8251ZM43.0288 52.149C42.1779 53.3646 41.3417 54.2247 40.5327 54.7763L41.6593 56.4287C42.7277 55.7003 43.7261 54.6404 44.6672 53.296L43.0288 52.149ZM40.5327 54.7763C39.6774 55.3594 38.9999 55.5992 38.4805 55.628L38.5915 57.625C39.6081 57.5685 40.6373 57.1256 41.6593 56.4287L40.5327 54.7763ZM38.4365 55.6315C38.3025 55.6449 38.1891 55.6182 38.0425 55.4899L36.7255 56.9951C37.2616 57.4641 37.9162 57.6935 38.6355 57.6215L38.4365 55.6315ZM38.0911 55.5354C37.9594 55.4037 37.936 55.3095 37.936 55.2185L35.936 55.2185C35.936 55.8955 36.2113 56.484 36.6769 56.9496L38.0911 55.5354ZM37.936 55.2185L37.936 48.5625L35.936 48.5625L35.936 55.2185L37.936 55.2185ZM37.936 48.5625C37.936 48.4761 37.9467 48.3868 37.9701 48.293L36.0299 47.808C35.968 48.0555 35.936 48.3076 35.936 48.5625L37.936 48.5625ZM37.8944 48.4977C37.9654 48.3557 38.0304 48.2437 38.088 48.1572L36.4239 47.0478C36.3109 47.2173 36.2052 47.4039 36.1056 47.6033L37.8944 48.4977ZM38.1504 48.0497C38.3669 47.6169 38.6631 47.1689 39.0482 46.7067L37.5118 45.4263C37.0436 45.9881 36.6571 46.5641 36.3616 47.1553L38.1504 48.0497ZM39.0482 46.7067C39.5308 46.1276 39.9555 45.4636 40.3264 44.7217L38.5376 43.8273C38.2259 44.4507 37.8826 44.9814 37.5118 45.4263L39.0482 46.7067ZM40.3264 44.7217C40.7567 43.8611 40.944 42.8431 40.944 41.7145L38.944 41.7145C38.944 42.6339 38.7899 43.3226 38.5376 43.8273L40.3264 44.7217ZM40.944 41.7145C40.944 40.4259 40.6584 39.2788 39.9569 38.4018L38.3951 39.6512C38.7176 40.0542 38.944 40.6991 38.944 41.7145L40.944 41.7145ZM39.9569 38.4018C39.2575 37.5276 38.3103 37.0665 37.192 37.0665L37.192 39.0665C37.695 39.0665 38.0705 39.2454 38.3951 39.6512L39.9569 38.4018ZM37.192 37.0665C36.4158 37.0665 35.6997 37.3103 35.0678 37.7698L36.2442 39.3872C36.551 39.1641 36.8589 39.0665 37.192 39.0665L37.192 37.0665ZM35.0228 37.8045C34.3291 38.3721 33.8283 39.3436 33.431 40.4914L35.321 41.1456C35.6917 40.0748 36.0442 39.5529 36.2892 39.3525L35.0228 37.8045ZM33.4273 40.5023C33.0223 41.7173 32.5859 43.5394 32.1148 45.9378L34.0772 46.3232C34.5448 43.943 34.9617 42.2237 35.3247 41.1347L33.4273 40.5023ZM32.1085 45.9731C31.6511 48.842 30.9136 51.0502 29.9382 52.6499L31.6458 53.6911C32.8037 51.7921 33.6022 49.307 34.0835 46.2879L32.1085 45.9731ZM29.929 52.6653C28.9743 54.2962 27.8841 55.3764 26.686 55.9935L27.602 57.7715C29.2199 56.938 30.5617 55.5435 31.655 53.6757L29.929 52.6653ZM26.6748 55.9994C25.453 56.6485 24.1633 56.9705 22.792 56.9705L22.792 58.9705C24.4927 58.9705 26.1043 58.5672 27.6132 57.7656L26.6748 55.9994ZM22.792 56.9705C20.9626 56.9705 19.3675 56.4237 17.9689 55.3274L16.7351 56.9016C18.4938 58.28 20.5254 58.9705 22.792 58.9705L22.792 56.9705ZM17.9554 55.3171C16.5657 54.2654 15.4248 52.65 14.5763 50.3874L12.7037 51.0896C13.6472 53.6057 14.981 55.5743 16.7486 56.9119L17.9554 55.3171ZM14.5817 50.4022C13.7777 48.1509 13.36 45.3703 13.36 42.0345L11.36 42.0345C11.36 45.5254 11.7956 48.5475 12.6983 51.0748L14.5817 50.4022Z" fill="url(#paint0_linear_3_79)"/>
<defs>
<linearGradient id="paint0_linear_3_79" x1="73" y1="32" x2="-3" y2="32" gradientUnits="userSpaceOnUse">
<stop offset="0.119792" stop-color="#F7E018"/>
<stop offset="0.583333" stop-color="#F7E018" stop-opacity="0.513964"/>
<stop offset="1" stop-color="#F7E018" stop-opacity="0.26"/>
</linearGradient>
</defs>
</svg>
