<svg width="40" height="40" viewBox="0 0 40 40" fill="none" xmlns="http://www.w3.org/2000/svg">
<path d="M21.6667 36.6666H15C14.558 36.6666 14.134 36.4911 13.8215 36.1785C13.5089 35.8659 13.3333 35.442 13.3333 35V24.6666H10C9.55797 24.6666 9.13405 24.4911 8.82149 24.1785C8.50893 23.8659 8.33333 23.442 8.33333 23V17C8.33333 16.558 8.50893 16.134 8.82149 15.8215C9.13405 15.5089 9.55797 15.3333 10 15.3333H13.3333V12.5C13.4502 9.96057 14.5677 7.57072 16.4416 5.85297C18.3155 4.13521 20.7934 3.2293 23.3333 3.33332H28.3333C28.7754 3.33332 29.1993 3.50891 29.5118 3.82147C29.8244 4.13403 30 4.55796 30 4.99998V11C30 11.442 29.8244 11.8659 29.5118 12.1785C29.1993 12.4911 28.7754 12.6667 28.3333 12.6667H23.3333V15.3333H28.3333C28.5907 15.3314 28.845 15.389 29.0763 15.5018C29.3076 15.6146 29.5097 15.7794 29.6667 15.9833C29.8219 16.1903 29.9268 16.4306 29.9731 16.6852C30.0194 16.9397 30.0058 17.2016 29.9333 17.45L28.2667 23.45C28.1658 23.8105 27.9466 24.1266 27.6443 24.3473C27.3419 24.568 26.9741 24.6805 26.6 24.6666H23.3333V35C23.3333 35.442 23.1577 35.8659 22.8452 36.1785C22.5326 36.4911 22.1087 36.6666 21.6667 36.6666ZM16.6667 33.3333H20V23C20 22.558 20.1756 22.134 20.4882 21.8215C20.8007 21.5089 21.2246 21.3333 21.6667 21.3333H25.4L26.1333 18.6666H21.6667C21.2246 18.6666 20.8007 18.4911 20.4882 18.1785C20.1756 17.8659 20 17.442 20 17V12.5C20.0428 11.6451 20.4128 10.8395 21.0333 10.25C21.6539 9.66047 22.4774 9.33225 23.3333 9.33332H26.6667V6.66665H23.3333C21.678 6.5658 20.0497 7.1217 18.8016 8.21376C17.5536 9.30581 16.7864 10.8459 16.6667 12.5V17C16.6667 17.442 16.4911 17.8659 16.1785 18.1785C15.8659 18.4911 15.442 18.6666 15 18.6666H11.6667V21.3333H15C15.442 21.3333 15.8659 21.5089 16.1785 21.8215C16.4911 22.134 16.6667 22.558 16.6667 23V33.3333Z" fill="white"/>
</svg>
