<svg width="39" height="40" viewBox="0 0 39 40" fill="none" xmlns="http://www.w3.org/2000/svg">
<path d="M25.7388 36.6667C25.3185 36.6667 24.9154 36.4911 24.6181 36.1785C24.3209 35.8659 24.1539 35.442 24.1539 35V30.6667C24.2032 30.1682 24.1524 29.6644 24.005 29.1879C23.8576 28.7113 23.6168 28.2726 23.2981 27.9C23.1008 27.675 22.9662 27.3971 22.9091 27.097C22.8521 26.7968 22.8747 26.4859 22.9746 26.1984C23.0744 25.9109 23.2477 25.6578 23.4753 25.467C23.7029 25.2762 23.9761 25.155 24.2649 25.1167C28.132 24.6333 31.6981 23.3333 31.6981 16.2833C31.6993 14.9668 31.3298 13.6793 30.6362 12.5833C29.9961 11.5744 29.7625 10.3398 29.9864 9.14999C30.1292 8.37386 30.1292 7.57612 29.9864 6.79999C28.7996 7.22195 27.6822 7.83478 26.6739 8.61666C26.4833 8.75902 26.2651 8.85526 26.0349 8.89848C25.8047 8.9417 25.5683 8.93083 25.3426 8.86666C22.4824 8.01675 19.4542 8.01675 16.5939 8.86666C16.3682 8.93083 16.1318 8.9417 15.9016 8.89848C15.6715 8.85526 15.4533 8.75902 15.2626 8.61666C14.2482 7.82572 13.1189 7.21227 11.9185 6.79999C11.7678 7.57531 11.7678 8.37467 11.9185 9.14999C12.1262 10.3547 11.882 11.5973 11.237 12.6167C10.5464 13.7204 10.1773 15.0121 10.1751 16.3333C10.1751 22.8167 13.1547 24.55 17.6241 25.15C17.9166 25.1882 18.1931 25.3113 18.4227 25.5056C18.6523 25.6999 18.8258 25.9577 18.9237 26.25C19.0159 26.5336 19.0336 26.8381 18.975 27.1314C18.9165 27.4247 18.7838 27.696 18.5909 27.9167C18.2827 28.2632 18.046 28.6731 17.896 29.1206C17.746 29.5681 17.6858 30.0435 17.7192 30.5167V35C17.7192 35.442 17.5522 35.8659 17.255 36.1785C16.9578 36.4911 16.5547 36.6667 16.1343 36.6667C15.714 36.6667 15.3108 36.4911 15.0136 36.1785C14.7164 35.8659 14.5494 35.442 14.5494 35V34.05C12.992 34.2383 11.4145 34.0189 9.95729 33.4111C8.50005 32.8034 7.20829 31.8263 6.19697 30.5667C5.67713 29.9607 5.05343 29.4632 4.35848 29.1C4.1566 29.0453 3.96693 28.9493 3.80032 28.8175C3.63372 28.6857 3.49342 28.5207 3.38746 28.3319C3.2815 28.143 3.21194 27.9341 3.18275 27.7171C3.15356 27.5 3.16532 27.279 3.21735 27.0667C3.26939 26.8544 3.36068 26.6549 3.48601 26.4797C3.61134 26.3045 3.76826 26.157 3.94781 26.0455C4.12736 25.9341 4.32602 25.861 4.53245 25.8303C4.73889 25.7996 4.94905 25.8119 5.15094 25.8667C6.37012 26.3337 7.45951 27.1127 8.32074 28.1333C9.90565 29.8 11.4905 31.2667 14.5019 30.6667C14.4489 29.7718 14.573 28.8752 14.8664 28.0333C11.6015 27.1667 6.94188 24.7 6.94188 16.3667C6.9377 14.3927 7.48916 12.4616 8.52678 10.8167C8.71951 10.513 8.79332 10.1428 8.73282 9.78332C8.41255 7.98428 8.5942 6.12622 9.25584 4.43332C9.34574 4.2076 9.4818 4.00546 9.65437 3.84127C9.82694 3.67708 10.0318 3.55487 10.2543 3.48332C10.7932 3.31666 12.7268 2.98332 16.3879 5.48332C19.3516 4.73333 22.4423 4.73333 25.406 5.48332C29.0671 2.98332 31.0007 3.29999 31.5237 3.48332C31.7463 3.55487 31.9511 3.67708 32.1237 3.84127C32.2963 4.00546 32.4323 4.2076 32.5222 4.43332C33.1852 6.13171 33.3668 7.9955 33.0452 9.79999C33.0128 9.96258 33.0115 10.1303 33.0415 10.2934C33.0714 10.4566 33.1319 10.6118 33.2196 10.75C34.2602 12.3997 34.8118 14.337 34.8045 16.3167C34.8045 24.7667 30.1766 27.2167 26.88 27.9833C27.1704 28.8777 27.2889 29.8238 27.2286 30.7667V35C27.2294 35.4252 27.0755 35.8347 26.7985 36.1445C26.5216 36.4544 26.1425 36.6411 25.7388 36.6667Z" fill="white"/>
</svg>
