<svg width="40" height="40" viewBox="0 0 40 40" fill="none" xmlns="http://www.w3.org/2000/svg">
<path d="M31 35H28.2167C27.3326 35 26.4848 34.6488 25.8597 34.0237C25.2345 33.3986 24.8833 32.5507 24.8833 31.6667V22.7167C24.8982 22.3657 24.7921 22.0202 24.5828 21.738C24.3735 21.4559 24.0736 21.2542 23.7333 21.1667C23.5354 21.1365 23.3333 21.1492 23.1406 21.2038C22.948 21.2585 22.7693 21.3538 22.6167 21.4833C22.4596 21.6167 22.3334 21.7827 22.2471 21.9698C22.1607 22.1569 22.1162 22.3606 22.1167 22.5667V31.6667C22.1167 32.5507 21.7655 33.3986 21.1404 34.0237C20.5152 34.6488 19.6674 35 18.7833 35H16C15.116 35 14.2681 34.6488 13.643 34.0237C13.0179 33.3986 12.6667 32.5507 12.6667 31.6667V22.5667C12.6667 21.144 12.9469 19.7353 13.4913 18.4209C14.0357 17.1066 14.8337 15.9123 15.8397 14.9063C16.8457 13.9004 18.0399 13.1024 19.3543 12.558C20.6686 12.0136 22.0774 11.7333 23.5 11.7333C24.9227 11.7333 26.3314 12.0136 27.6457 12.558C28.9601 13.1024 30.1544 13.9004 31.1603 14.9063C32.1663 15.9123 32.9643 17.1066 33.5087 18.4209C34.0531 19.7353 34.3333 21.144 34.3333 22.5667V31.6667C34.3333 32.5507 33.9821 33.3986 33.357 34.0237C32.7319 34.6488 31.8841 35 31 35ZM23.5 17.8167C23.7609 17.8002 24.0225 17.8002 24.2833 17.8167C25.4023 18.0319 26.4097 18.6343 27.129 19.5181C27.8482 20.4018 28.2333 21.5107 28.2167 22.65V31.6667H31V22.5667C31 20.5775 30.2098 18.6699 28.8033 17.2634C27.3968 15.8568 25.4891 15.0667 23.5 15.0667C21.5109 15.0667 19.6032 15.8568 18.1967 17.2634C16.7902 18.6699 16 20.5775 16 22.5667V31.6667H18.7833V22.5667C18.7833 21.3126 19.2792 20.1095 20.1628 19.2196C21.0464 18.3298 22.246 17.8255 23.5 17.8167Z" fill="white"/>
<path d="M7.66668 35H4.33334C3.44929 35 2.60144 34.6488 1.97632 34.0237C1.3512 33.3986 1.00001 32.5507 1.00001 31.6667V15C1.00001 14.116 1.3512 13.2681 1.97632 12.643C2.60144 12.0179 3.44929 11.6667 4.33334 11.6667H7.66668C8.55073 11.6667 9.39858 12.0179 10.0237 12.643C10.6488 13.2681 11 14.116 11 15V31.6667C11 32.5507 10.6488 33.3986 10.0237 34.0237C9.39858 34.6488 8.55073 35 7.66668 35ZM4.33334 15V31.6667H7.66668V15H4.33334Z" fill="white"/>
<path d="M6 10C5.0111 10 4.0444 9.70676 3.22215 9.15735C2.39991 8.60794 1.75904 7.82705 1.3806 6.91342C1.00217 5.99979 0.90315 4.99446 1.09608 4.02455C1.289 3.05465 1.76521 2.16373 2.46447 1.46447C3.16373 0.765206 4.05465 0.289002 5.02455 0.0960758C5.99446 -0.0968503 6.99979 0.00216643 7.91342 0.380605C8.82705 0.759043 9.60794 1.39991 10.1573 2.22215C10.7068 3.0444 11 4.0111 11 5C11 6.32608 10.4732 7.59785 9.53554 8.53554C8.59785 9.47322 7.32608 10 6 10ZM6 3.33334C5.67037 3.33334 5.34813 3.43108 5.07405 3.61422C4.79997 3.79736 4.58635 4.05765 4.4602 4.3622C4.33406 4.66674 4.30105 5.00185 4.36536 5.32515C4.42967 5.64845 4.5884 5.94543 4.82149 6.17851C5.05458 6.4116 5.35155 6.57034 5.67485 6.63464C5.99815 6.69895 6.33326 6.66595 6.63781 6.5398C6.94235 6.41366 7.20265 6.20003 7.38578 5.92595C7.56892 5.65187 7.66667 5.32964 7.66667 5C7.66667 4.55797 7.49107 4.13405 7.17851 3.82149C6.86595 3.50893 6.44203 3.33334 6 3.33334Z" fill="white"/>
</svg>
