<svg width="312" height="346" viewBox="0 0 312 346" fill="none" xmlns="http://www.w3.org/2000/svg">
<path d="M90.6575 210.257C112.08 247.361 138.8 276.667 164.639 294.069C190.54 311.513 215.252 316.819 232.916 306.62C250.58 296.422 258.342 272.368 256.185 241.215C254.034 210.136 242.014 172.343 220.592 135.239C199.17 98.1343 172.45 68.8287 146.61 51.4261C120.709 33.982 95.9974 28.6765 78.3333 38.8749C60.6692 49.0733 52.9078 73.1273 55.0643 104.28C57.2157 135.359 69.2352 173.152 90.6575 210.257Z" stroke="#FDFDFD" stroke-width="2"/>
<path d="M220.592 210.257C199.17 247.361 172.45 276.667 146.61 294.069C120.709 311.513 95.9974 316.819 78.3333 306.62C60.6692 296.422 52.9078 272.368 55.0643 241.215C57.2157 210.136 69.2352 172.343 90.6575 135.239C112.08 98.1343 138.8 68.8287 164.639 51.4261C190.54 33.982 215.252 28.6765 232.916 38.8749C250.58 49.0733 258.342 73.1273 256.185 104.28C254.034 135.359 242.014 173.152 220.592 210.257Z" stroke="#FDFDFD" stroke-width="2"/>
<path d="M155.583 248.035C198.428 248.036 237.167 239.548 265.158 225.872C293.215 212.163 310.166 193.414 310.166 173.018C310.166 152.621 293.215 133.872 265.158 120.164C237.167 106.487 198.428 98 155.583 98C112.738 98 73.9991 106.487 46.0082 120.164C17.9507 133.872 0.999998 152.621 0.999997 173.018C0.999996 193.414 17.9507 212.163 46.0082 225.872C73.9991 239.548 112.738 248.035 155.583 248.035Z" stroke="#FDFDFD" stroke-width="2"/>
</svg>
